<svg xmlns="http://www.w3.org/2000/svg" width="37" height="37" viewBox="0 0 37 37"><title>drone</title><g id="Layer_2" data-name="Layer 2"><polygon points="26.572 21.52 26.572 18.444 26.572 18.345 26.572 15.269 22.427 11.658 14.343 11.658 10.447 15.191 10.447 18.345 10.447 18.444 10.447 21.599 14.343 25.132 22.427 25.132 26.572 21.52" style="fill:#414042"/><polygon points="26.572 15.269 22.427 11.658 27.384 7.773 29.189 9.292 26.572 15.269" style="fill:#373638"/><polygon points="26.572 21.531 22.427 25.143 27.384 29.027 29.189 27.509 26.572 21.531" style="fill:#373638"/><polygon points="10.447 15.191 14.364 11.658 9.406 7.773 7.601 9.292 10.447 15.191" style="fill:#373638"/><polygon points="10.447 21.599 14.364 25.143 9.406 29.027 7.601 27.509 10.447 21.599" style="fill:#373638"/><path d="M26.5717,17.2624a9.0812,9.0812,0,0,1-6.641-5.6043l2.4959,0,4.1454,3.6115Z" style="fill:#373638"/><path d="M26.5717,19.527a9.0812,9.0812,0,0,0-6.641,5.6043l2.4959,0L26.572,21.52Z" style="fill:#373638"/><path d="M10.4474,17.2624a9.0812,9.0812,0,0,0,6.641-5.6043l-2.4959,0L10.447,15.2694Z" style="fill:#373638"/><path d="M10.4474,19.527a9.0812,9.0812,0,0,1,6.641,5.6043l-2.4959,0L10.447,21.52Z" style="fill:#373638"/><line x1="28.4233" y1="28.393" x2="34.8384" y2="25.593" style="fill:none;stroke:#f7941d;stroke-miterlimit:10"/><line x1="26.1727" y1="35.0197" x2="28.4233" y2="28.393" style="fill:none;stroke:#f7941d;stroke-miterlimit:10"/><line x1="21.2983" y1="29.268" x2="28.4233" y2="28.393" style="fill:none;stroke:#f7941d;stroke-miterlimit:10"/><line x1="22.0762" y1="5.3438" x2="28.3845" y2="8.3784" style="fill:none;stroke:#f7941d;stroke-miterlimit:10"/><line x1="33.0081" y1="13.6268" x2="28.3845" y2="8.3784" style="fill:none;stroke:#f7941d;stroke-miterlimit:10"/><line x1="35.1379" y1="6.5483" x2="28.3845" y2="8.3784" style="fill:none;stroke:#f7941d;stroke-miterlimit:10"/><line x1="8.3845" y1="8.3784" x2="15.373" y2="8.6959" style="fill:none;stroke:#f7941d;stroke-miterlimit:10"/><line x1="3.1983" y1="3.6803" x2="8.3845" y2="8.3784" style="fill:none;stroke:#f7941d;stroke-miterlimit:10"/><line x1="10.8207" y1="14.9374" x2="8.3845" y2="8.3784" style="fill:none;stroke:#f7941d;stroke-miterlimit:10"/><line x1="7.5647" y1="21.406" x2="8.4397" y2="28.406" style="fill:none;stroke:#f7941d;stroke-miterlimit:10"/><line x1="3.942" y1="33.7685" x2="8.4397" y2="28.406" style="fill:none;stroke:#f7941d;stroke-miterlimit:10"/><line x1="15.3147" y1="29.4685" x2="8.4397" y2="28.406" style="fill:none;stroke:#f7941d;stroke-miterlimit:10"/><circle cx="28.3845" cy="8.3784" r="7" style="fill:none;stroke:#414042;stroke-miterlimit:10;stroke-width:2px"/><circle cx="8.3845" cy="8.3784" r="7" style="fill:none;stroke:#414042;stroke-miterlimit:10;stroke-width:2px"/><circle cx="8.4397" cy="28.406" r="7" style="fill:none;stroke:#414042;stroke-miterlimit:10;stroke-width:2px"/><circle cx="28.3845" cy="8.3784" r="2.8" style="fill:#414042"/><circle cx="8.3845" cy="8.3784" r="2.8" style="fill:#414042"/><circle cx="8.4397" cy="28.406" r="2.8" style="fill:#414042"/><circle cx="28.4233" cy="28.393" r="7" style="fill:none;stroke:#414042;stroke-miterlimit:10;stroke-width:2px"/><circle cx="28.4233" cy="28.393" r="2.8" style="fill:#414042"/><circle cx="18.5095" cy="23.9412" r="0.8097" style="fill:#f7941d"/><circle cx="18.5095" cy="13.0818" r="0.8097" style="fill:#939598"/><polygon points="17.169 21.902 18.169 19.933 21.356 18.933 21.356 17.955 18.169 16.955 17.169 14.986 15.762 14.986 15.762 16.955 14.044 17.955 14.044 18.933 15.762 19.933 15.762 21.902 17.169 21.902" style="fill:#373638"/><polygon points="21.356 18.933 21.356 17.955 18.169 16.955 17.169 14.986 15.762 14.986 15.762 16.955 14.044 17.955 21.356 18.933" style="fill:#49484a"/></g></svg>