<svg xmlns="http://www.w3.org/2000/svg" width="153" height="140.5" viewBox="0 0 153 140.5"><title>home</title><g id="Layer_6" data-name="Layer 6"><polygon points="104.509 21.957 132.488 70.417 104.509 118.877 48.553 118.877 20.574 70.417 48.553 21.957 104.509 21.957" style="fill:#373638"/><polygon points="48.553 21.957 76.493 70.417 20.574 70.417 48.553 21.957" style="fill:#414042"/><polygon points="104.471 21.957 132.412 70.417 76.493 70.417 104.471 21.957" style="fill:#2d2d2e"/><polygon points="76.484 70.623 132.421 70.656 104.462 119.083 76.484 70.623" style="fill:#2d2d2e"/><polygon points="48.515 21.957 104.452 21.99 76.493 70.417 48.515 21.957" style="fill:#414042"/><polygon points="48.515 21.957 104.452 21.99 76.493 70.417 48.515 21.957" style="fill:#414042"/><polygon points="88.66 49.409 100.789 70.417 88.66 91.424 64.402 91.424 52.273 70.417 64.402 49.409 88.66 49.409" style="fill:#202021"/><polygon points="147.313 80.393 142.474 80.393 142.474 60.397 147.313 60.397 148.859 66.504 148.859 74.329 147.313 80.393" style="fill:#373638"/><polygon points="145.667 74.329 76.531 72.329 76.531 68.504 145.667 66.504 145.667 74.329" style="fill:#4b4a4d"/><polygon points="5.749 60.397 10.588 60.397 10.588 80.393 5.749 80.393 4.203 74.286 4.203 66.461 5.749 60.397" style="fill:#373638"/><polygon points="7.395 66.46 76.531 68.46 76.531 72.285 7.395 74.285 7.395 66.46" style="fill:#4b4a4d"/><polygon points="120.581 14.095 118.161 18.286 100.844 8.287 103.263 4.096 109.326 5.811 116.102 9.724 120.581 14.095" style="fill:#373638"/><polygon points="114.506 12.489 78.206 71.362 74.894 69.449 107.729 8.576 114.506 12.489" style="fill:#4b4a4d"/><polygon points="32.481 126.695 34.901 122.504 52.218 132.502 49.799 136.693 43.736 134.978 36.96 131.066 32.481 126.695" style="fill:#373638"/><polygon points="38.556 128.301 74.856 69.427 78.168 71.34 45.333 132.213 38.556 128.301" style="fill:#4b4a4d"/><polygon points="49.799 4.096 52.218 8.287 34.901 18.286 32.481 14.095 36.997 9.702 43.774 5.789 49.799 4.096" style="fill:#373638"/><polygon points="45.371 8.554 78.206 69.427 74.894 71.34 38.594 12.467 45.371 8.554" style="fill:#4b4a4d"/><polygon points="103.263 136.693 100.844 132.502 118.161 122.504 120.581 126.695 116.065 131.088 109.288 135 103.263 136.693" style="fill:#373638"/><polygon points="107.691 132.235 74.856 71.362 78.168 69.449 114.468 128.323 107.691 132.235" style="fill:#4b4a4d"/><polygon points="69.269 87.694 83.769 87.694 87.876 85.323 87.876 85.323 95.106 72.799 95.106 68.035 87.887 55.531 83.769 53.139 69.343 53.139 65.199 55.488 57.981 67.991 57.981 72.842 65.161 85.279 69.269 87.694" style="fill:#414042"/><polygon points="30.669 60.387 44.078 37.204 57.068 54.666 52.309 62.909 30.669 60.387" style="fill:#202021"/><path d="M44.13,38.1125,56.4708,54.7009l-4.43,7.6734L31.4827,59.9784,44.13,38.1125m-.1047-1.8162-.7609,1.3155L30.6171,59.4778l-.7622,1.3177,1.512.1762,20.5579,2.3959.6531.0761.3287-.5694,4.43-7.6734.3287-.5694-.3925-.5275L44.9323,37.5156l-.907-1.2193Z" style="fill:#4b4a4d"/><polygon points="8.502 23.225 40.498 36.015 27.899 57.908 0.75 36.651 8.502 23.225" style="fill:#373638"/><line x1="9.3125" y1="27.0625" x2="4.75" y2="35.0625" style="fill:none;stroke:#414042;stroke-miterlimit:10"/><line x1="13.6146" y1="28.7083" x2="8.3229" y2="37.9271" style="fill:none;stroke:#414042;stroke-miterlimit:10"/><line x1="17.9167" y1="30.3542" x2="11.8958" y2="40.7917" style="fill:none;stroke:#414042;stroke-miterlimit:10"/><line x1="22.2188" y1="32" x2="15.4688" y2="43.6563" style="fill:none;stroke:#414042;stroke-miterlimit:10"/><line x1="26.5208" y1="33.6458" x2="19.0417" y2="46.5208" style="fill:none;stroke:#414042;stroke-miterlimit:10"/><line x1="30.8229" y1="35.2917" x2="22.6146" y2="49.3854" style="fill:none;stroke:#414042;stroke-miterlimit:10"/><line x1="35.125" y1="36.9375" x2="26.1875" y2="52.25" style="fill:none;stroke:#414042;stroke-miterlimit:10"/><line x1="30.8716" y1="35.2064" x2="22.548" y2="49.5022" style="fill:none;stroke:#414042;stroke-miterlimit:10"/><line x1="26.6181" y1="33.4752" x2="18.9085" y2="46.7543" style="fill:none;stroke:#414042;stroke-miterlimit:10"/><line x1="22.3647" y1="31.7441" x2="15.269" y2="44.0065" style="fill:none;stroke:#414042;stroke-miterlimit:10"/><line x1="18.1112" y1="30.013" x2="11.6295" y2="41.2586" style="fill:none;stroke:#414042;stroke-miterlimit:10"/><line x1="13.8578" y1="28.2819" x2="7.99" y2="38.5108" style="fill:none;stroke:#414042;stroke-miterlimit:10"/><line x1="9.6044" y1="26.5507" x2="4.3505" y2="35.7629" style="fill:none;stroke:#414042;stroke-miterlimit:10"/><line x1="103.1337" y1="75.648" x2="94.6999" y2="90.4361" style="fill:none;stroke:#373638;stroke-miterlimit:10"/><line x1="106.4699" y1="75.7451" x2="96.4722" y2="93.1481" style="fill:none;stroke:#373638;stroke-miterlimit:10"/><line x1="109.8061" y1="75.8422" x2="98.2444" y2="95.8602" style="fill:none;stroke:#373638;stroke-miterlimit:10"/><line x1="113.1422" y1="75.9393" x2="100.0166" y2="98.5722" style="fill:none;stroke:#373638;stroke-miterlimit:10"/><line x1="116.4784" y1="76.0364" x2="101.7889" y2="101.2843" style="fill:none;stroke:#373638;stroke-miterlimit:10"/><line x1="119.8146" y1="76.1335" x2="103.5611" y2="103.9963" style="fill:none;stroke:#373638;stroke-miterlimit:10"/><line x1="123.1507" y1="76.2306" x2="105.3333" y2="106.7083" style="fill:none;stroke:#373638;stroke-miterlimit:10"/><polygon points="44.13 38.113 53.424 59.978 52.041 62.374 31.483 59.978 44.13 38.113" style="fill:#5a595c"/><path d="M83.67,37.3882a4.2529,4.2529,0,0,1-.77,3.1226,2.9586,2.9586,0,0,1-2.3815,1.22,3.2192,3.2192,0,0,1-2.5116-1.2142,4.5648,4.5648,0,0,1-.9863-3.0425,4.6415,4.6415,0,0,1,.8775-3.035,2.62,2.62,0,0,1,2.11-1.0964A3.3269,3.3269,0,0,1,82.41,34.4736,4.61,4.61,0,0,1,83.67,37.3882Zm-2.5845.0328a5.5816,5.5816,0,0,0-.3607-1.9128.7154.7154,0,0,0-.6146-.4556c-.249.0012-.4261.166-.5394.4858a5.9284,5.9284,0,0,0-.0928,1.9033,5.7787,5.7787,0,0,0,.3175,1.9764.7207.7207,0,0,0,.6324.4589c.2514-.0029.4426-.1649.5713-.4746A5.272,5.272,0,0,0,81.0858,37.421Z" style="fill:#f7941d"/><path d="M71.3018,35.9962,69.654,36.01c.1166-1.0206.1728-1.5354.2917-2.5968,2.587,0,3.66.001,5.8624.0032.0039.1686.006.254.0059.2579a4.4972,4.4972,0,0,1-.4688,2.0366,4.0613,4.0613,0,0,1-.6564.9066,7.7212,7.7212,0,0,1-1.0435.9121,12.739,12.739,0,0,0-1.3965,1.1471,1.26,1.26,0,0,0-.3625.7289.7719.7719,0,0,0,.1533.5813.7223.7223,0,0,0,.5993.2224c.5888-.0063.91-.397.9583-1.1521.8019.0144,1.2.0217,1.9979.0363a2.531,2.531,0,0,1-.9882,2.0278,3.9025,3.9025,0,0,1-2.2383.61,3.5088,3.5088,0,0,1-2.2746-.6749,1.8625,1.8625,0,0,1-.7045-1.7389,2.2919,2.2919,0,0,1,.5806-1.2782,6.496,6.496,0,0,1,1.844-1.27,9.89,9.89,0,0,0,1.393-.8167,2.0735,2.0735,0,0,0,.5486-.6479l-2.3712.0133C71.3516,35.59,71.3351,35.7256,71.3018,35.9962Z" style="fill:#f7941d"/></g><g id="Layer_2" data-name="Layer 2"><circle cx="57.9117" cy="50.7032" r="1.4409" style="fill:#f7941d"/><circle cx="55.4826" cy="46.7326" r="1.4409" style="fill:#939598"/></g></svg>