<?xml version="1.0" encoding="utf-8"?>
<!-- Generator: Adobe Illustrator 20.0.0, SVG Export Plug-In . SVG Version: 6.00 Build 0)  -->
<svg version="1.1" xmlns="http://www.w3.org/2000/svg" xmlns:xlink="http://www.w3.org/1999/xlink" x="0px" y="0px"
	 viewBox="0 0 153 140.5" style="enable-background:new 0 0 153 140.5;" xml:space="preserve">
<style type="text/css">
	.st0{fill:#373638;}
	.st1{fill:#414042;}
	.st2{fill:#2D2D2E;}
	.st3{fill:#202021;}
	.st4{fill:#4B4A4D;}
	.st5{fill:none;stroke:#414042;stroke-miterlimit:10;}
	.st6{fill:none;stroke:#373638;stroke-miterlimit:10;}
	.st7{fill:#5A595C;}
	.st8{fill:#F7941D;}
	.st9{fill:#49484A;}
	.st10{fill:#3A393B;}
	.st11{display:none;}
	.st12{display:inline;fill:#99643F;}
	.st13{display:inline;fill:#BC672E;}
	.st14{display:inline;fill:#855737;}
	.st15{display:inline;fill:#A37350;}
	.st16{display:inline;opacity:0.27;fill:#373638;}
	.st17{display:inline;}
	.st18{opacity:0.27;fill:#373638;}
	.st19{fill:#BC672E;}
	.st20{fill:#875838;}
	.st21{fill:#7D5134;}
	.st22{fill:none;stroke:#F7941D;stroke-miterlimit:10;}
	.st23{fill:none;stroke:#414042;stroke-width:2;stroke-miterlimit:10;}
	.st24{fill:#939598;}
</style>
<g id="Layer_6">
	<polygon class="st0" points="104.5,22 132.5,70.4 104.5,118.9 48.6,118.9 20.6,70.4 48.6,22 	"/>
	<polygon class="st1" points="48.6,22 76.5,70.4 20.6,70.4 	"/>
	<polygon class="st2" points="104.5,22 132.4,70.4 76.5,70.4 	"/>
	<polygon class="st2" points="76.5,70.6 132.4,70.7 104.5,119.1 	"/>
	<polygon class="st1" points="48.5,22 104.5,22 76.5,70.4 	"/>
	<polygon class="st1" points="48.5,22 104.5,22 76.5,70.4 	"/>
	<polygon class="st3" points="88.7,49.4 100.8,70.4 88.7,91.4 64.4,91.4 52.3,70.4 64.4,49.4 	"/>
	<g>
		<polygon class="st0" points="147.3,80.4 142.5,80.4 142.5,60.4 147.3,60.4 148.9,66.5 148.9,74.3 		"/>
		<polygon class="st4" points="145.7,74.3 76.5,72.3 76.5,68.5 145.7,66.5 		"/>
	</g>
	<g>
		<polygon class="st0" points="5.7,60.4 10.6,60.4 10.6,80.4 5.7,80.4 4.2,74.3 4.2,66.5 		"/>
		<polygon class="st4" points="7.4,66.5 76.5,68.5 76.5,72.3 7.4,74.3 		"/>
	</g>
	<g>
		<polygon class="st0" points="120.6,14.1 118.2,18.3 100.8,8.3 103.3,4.1 109.3,5.8 116.1,9.7 		"/>
		<polygon class="st4" points="114.5,12.5 78.2,71.4 74.9,69.4 107.7,8.6 		"/>
	</g>
	<g>
		<polygon class="st0" points="32.5,126.7 34.9,122.5 52.2,132.5 49.8,136.7 43.7,135 37,131.1 		"/>
		<polygon class="st4" points="38.6,128.3 74.9,69.4 78.2,71.3 45.3,132.2 		"/>
	</g>
	<g>
		<polygon class="st0" points="49.8,4.1 52.2,8.3 34.9,18.3 32.5,14.1 37,9.7 43.8,5.8 		"/>
		<polygon class="st4" points="45.4,8.6 78.2,69.4 74.9,71.3 38.6,12.5 		"/>
	</g>
	<g>
		<polygon class="st0" points="103.3,136.7 100.8,132.5 118.2,122.5 120.6,126.7 116.1,131.1 109.3,135 		"/>
		<polygon class="st4" points="107.7,132.2 74.9,71.4 78.2,69.4 114.5,128.3 		"/>
	</g>
	<polygon class="st1" points="69.3,87.7 83.8,87.7 87.9,85.3 87.9,85.3 95.1,72.8 95.1,68 87.9,55.5 83.8,53.1 69.3,53.1 65.2,55.5 
		58,68 58,72.8 65.2,85.3 	"/>
	<g>
		<polygon class="st3" points="30.7,60.4 44.1,37.2 57.1,54.7 52.3,62.9 		"/>
		<path class="st4" d="M44.1,38.1l12.3,16.6L52,62.4L31.5,60L44.1,38.1 M44,36.3l-0.8,1.3L30.6,59.5l-0.8,1.3l1.5,0.2l20.6,2.4
			l0.7,0.1l0.3-0.6l4.4-7.7l0.3-0.6l-0.4-0.5L44.9,37.5L44,36.3L44,36.3z"/>
	</g>
	<polygon class="st0" points="8.5,23.2 40.5,36 27.9,57.9 0.8,36.7 	"/>
	<g>
		<line class="st5" x1="9.3" y1="27.1" x2="4.8" y2="35.1"/>
		<line class="st5" x1="13.6" y1="28.7" x2="8.3" y2="37.9"/>
		<line class="st5" x1="17.9" y1="30.4" x2="11.9" y2="40.8"/>
		<line class="st5" x1="22.2" y1="32" x2="15.5" y2="43.7"/>
		<line class="st5" x1="26.5" y1="33.6" x2="19" y2="46.5"/>
		<line class="st5" x1="30.8" y1="35.3" x2="22.6" y2="49.4"/>
		<line class="st5" x1="35.1" y1="36.9" x2="26.2" y2="52.2"/>
		<line class="st5" x1="30.9" y1="35.2" x2="22.5" y2="49.5"/>
		<line class="st5" x1="26.6" y1="33.5" x2="18.9" y2="46.8"/>
		<line class="st5" x1="22.4" y1="31.7" x2="15.3" y2="44"/>
		<line class="st5" x1="18.1" y1="30" x2="11.6" y2="41.3"/>
		<line class="st5" x1="13.9" y1="28.3" x2="8" y2="38.5"/>
		<line class="st5" x1="9.6" y1="26.6" x2="4.4" y2="35.8"/>
	</g>
	<g>
		<line class="st6" x1="103.1" y1="75.6" x2="94.7" y2="90.4"/>
		<line class="st6" x1="106.5" y1="75.7" x2="96.5" y2="93.1"/>
		<line class="st6" x1="109.8" y1="75.8" x2="98.2" y2="95.9"/>
		<line class="st6" x1="113.1" y1="75.9" x2="100" y2="98.6"/>
		<line class="st6" x1="116.5" y1="76" x2="101.8" y2="101.3"/>
		<line class="st6" x1="119.8" y1="76.1" x2="103.6" y2="104"/>
		<line class="st6" x1="123.2" y1="76.2" x2="105.3" y2="106.7"/>
	</g>
	<polygon class="st7" points="44.1,38.1 53.4,60 52,62.4 31.5,60 	"/>
	<g>
		<g>
			<path class="st8" d="M83.7,37.4c0.1,1.3-0.1,2.3-0.8,3.1c-0.6,0.8-1.4,1.2-2.4,1.2c-1,0-1.8-0.4-2.5-1.2c-0.7-0.8-1-1.8-1-3
				c0-1.3,0.3-2.3,0.9-3c0.6-0.7,1.3-1.1,2.1-1.1c0.9,0,1.7,0.4,2.4,1.1C83.1,35.2,83.6,36.2,83.7,37.4z M81.1,37.4
				c-0.1-1-0.2-1.6-0.4-1.9c-0.2-0.3-0.4-0.5-0.6-0.5c-0.2,0-0.4,0.2-0.5,0.5c-0.1,0.3-0.1,0.9-0.1,1.9c0.1,1,0.2,1.7,0.3,2
				c0.2,0.3,0.4,0.5,0.6,0.5c0.3,0,0.4-0.2,0.6-0.5C81.1,39.1,81.2,38.4,81.1,37.4z"/>
			<path class="st8" d="M71.3,36c-0.6,0-1,0-1.6,0c0.1-1,0.2-1.5,0.3-2.6c2.6,0,3.7,0,5.9,0c0,0.2,0,0.3,0,0.3c0,0.8-0.2,1.4-0.5,2
				c-0.2,0.3-0.4,0.6-0.7,0.9c-0.3,0.3-0.6,0.6-1,0.9c-0.7,0.5-1.2,0.9-1.4,1.1c-0.2,0.2-0.3,0.5-0.4,0.7c0,0.2,0,0.4,0.2,0.6
				c0.1,0.2,0.3,0.2,0.6,0.2c0.6,0,0.9-0.4,1-1.2c0.8,0,1.2,0,2,0c-0.1,0.9-0.4,1.6-1,2c-0.6,0.4-1.4,0.6-2.2,0.6
				c-1,0-1.7-0.2-2.3-0.7c-0.5-0.4-0.8-1-0.7-1.7c0-0.5,0.2-0.9,0.6-1.3c0.3-0.4,1-0.8,1.8-1.3c0.7-0.4,1.2-0.6,1.4-0.8
				c0.2-0.2,0.4-0.4,0.5-0.6c-0.9,0-1.4,0-2.4,0C71.4,35.6,71.3,35.7,71.3,36z"/>
		</g>
	</g>
	<rect x="-61.3" y="71" transform="matrix(-1.836970e-16 1 -1 -1.836970e-16 19.2421 123.812)" class="st0" width="18" height="1"/>
	<rect x="-41.9" y="71" transform="matrix(-1.836970e-16 1 -1 -1.836970e-16 38.598 104.4561)" class="st0" width="18" height="1"/>
	<polygon class="st1" points="-45.2,77.6 -42.7,77.5 -39.6,74.9 -32.4,74.8 -29.2,72.8 -29.2,70.2 -32.4,68.3 -39.6,68.1 
		-42.7,65.6 -45.2,65.5 -46,68 -51.8,67.8 -54.2,67.8 -55.3,68.8 -55.3,74.3 -54.2,75.3 -51.8,75.3 -46,75.1 	"/>
	<polygon class="st9" points="-39.6,68.1 -46,68 -54.2,67.8 -55.3,68.8 -48.8,71.5 -34.3,71.5 -29.2,70.2 -32.4,68.3 	"/>
	<polygon class="st0" points="-48.8,71.5 -34.3,71.5 -29.2,72.8 -32.4,74.8 -39.6,74.9 -46,75.1 -54.2,75.3 -55.3,74.3 	"/>
	<path class="st1" d="M-56.8,58.7h9.1c0.3,0,0.6,0.3,0.6,0.6v6.4c0,0.3-0.3,0.6-0.6,0.6h-9.1c-0.3,0-0.6-0.3-0.6-0.6v-6.4
		C-57.4,59-57.2,58.7-56.8,58.7z"/>
	<path class="st1" d="M-56.8,76.7h9.1c0.3,0,0.6,0.3,0.6,0.6v6.4c0,0.3-0.3,0.6-0.6,0.6h-9.1c-0.3,0-0.6-0.3-0.6-0.6v-6.4
		C-57.4,77-57.2,76.7-56.8,76.7z"/>
	<path class="st1" d="M-36.8,60.5h7.7c0.3,0,0.6,0.3,0.6,0.6v5.4c0,0.3-0.3,0.6-0.6,0.6h-7.7c-0.3,0-0.6-0.3-0.6-0.6V61
		C-37.4,60.7-37.1,60.5-36.8,60.5z"/>
	<path class="st1" d="M-36.8,76h7.7c0.3,0,0.6,0.3,0.6,0.6V82c0,0.3-0.3,0.6-0.6,0.6h-7.7c-0.3,0-0.6-0.3-0.6-0.6v-5.4
		C-37.4,76.3-37.1,76-36.8,76z"/>
	<polygon class="st10" points="-29.8,66.7 -29.1,63.7 -29.8,60.8 -29.4,60.8 -28.6,63.7 -29.4,66.7 	"/>
	<polygon class="st10" points="-31.7,66.7 -30.9,63.7 -31.7,60.8 -31.2,60.8 -30.5,63.7 -31.2,66.7 	"/>
	<polygon class="st10" points="-33.5,66.7 -32.7,63.7 -33.5,60.8 -33,60.8 -32.3,63.7 -33,66.7 	"/>
	<polygon class="st10" points="-35.3,66.7 -34.6,63.7 -35.3,60.8 -34.8,60.8 -34.1,63.7 -34.8,66.7 	"/>
	<polygon class="st10" points="-37.1,66.5 -36.4,63.7 -37.1,61 -36.6,60.8 -35.9,63.7 -36.6,66.7 	"/>
	<polygon class="st10" points="-49.3,65.9 -48.5,62.5 -49.3,59.2 -48.8,59.2 -48.1,62.5 -48.8,65.9 	"/>
	<polygon class="st10" points="-51.1,65.9 -50.4,62.5 -51.1,59.2 -50.6,59.2 -49.9,62.5 -50.6,65.9 	"/>
	<polygon class="st10" points="-52.9,65.9 -52.2,62.5 -52.9,59.2 -52.4,59.2 -51.7,62.5 -52.4,65.9 	"/>
	<polygon class="st10" points="-54.7,65.9 -54,62.5 -54.7,59.2 -54.3,59.2 -53.5,62.5 -54.3,65.9 	"/>
	<polygon class="st10" points="-56.5,65.7 -55.8,62.5 -56.5,59.3 -56.1,59.2 -55.3,62.5 -56.1,65.9 	"/>
	<polygon class="st10" points="-49.3,83.9 -48.5,80.5 -49.3,77.2 -48.8,77.2 -48.1,80.5 -48.8,83.9 	"/>
	<polygon class="st10" points="-51.1,83.9 -50.4,80.5 -51.1,77.2 -50.6,77.2 -49.9,80.5 -50.6,83.9 	"/>
	<polygon class="st10" points="-52.9,83.9 -52.2,80.5 -52.9,77.2 -52.4,77.2 -51.7,80.5 -52.4,83.9 	"/>
	<polygon class="st10" points="-54.7,83.9 -54,80.5 -54.7,77.2 -54.3,77.2 -53.5,80.5 -54.3,83.9 	"/>
	<polygon class="st10" points="-56.5,83.7 -55.8,80.5 -56.5,77.4 -56.1,77.2 -55.3,80.5 -56.1,83.9 	"/>
	<polygon class="st10" points="-29.8,82.2 -29.1,79.3 -29.8,76.4 -29.4,76.4 -28.6,79.3 -29.4,82.2 	"/>
	<polygon class="st10" points="-31.7,82.2 -30.9,79.3 -31.7,76.4 -31.2,76.4 -30.5,79.3 -31.2,82.2 	"/>
	<polygon class="st10" points="-33.5,82.2 -32.7,79.3 -33.5,76.4 -33,76.4 -32.3,79.3 -33,82.2 	"/>
	<polygon class="st10" points="-35.3,82.2 -34.6,79.3 -35.3,76.4 -34.8,76.4 -34.1,79.3 -34.8,82.2 	"/>
	<polygon class="st10" points="-37.1,82.1 -36.4,79.3 -37.1,76.5 -36.6,76.4 -35.9,79.3 -36.6,82.2 	"/>
</g>
<g id="base" class="st11">
	<rect x="-574.5" y="-414" class="st12" width="1280" height="800"/>
</g>
<g id="Layer_1" class="st11">
	<path class="st13" d="M-246.2,333.3c3.3-8.8,11.2-15,18.6-20.7c22.6-17.3,45.2-34.6,67.8-51.8c12.5-9.6,25.5-19.4,40.8-23.4
		c18.6-5,38.3-0.7,57.6,0.3c21.4,1.1,43-1.9,63.3-8.7c4.9-1.6,9.8-3.5,13.8-6.8c4.1-3.3,7.1-7.8,10.2-12.1
		c30-42.3,74.8-74,124.8-88.1c23.8-6.7,49.7-10.1,68.9-25.7c25-20.3,34.4-58.3,64-71c11.2-4.8,23.9-5.1,35.1-9.9
		c27.7-11.7,38-44.8,56.4-68.6c27.4-35.3,75-50,119.7-48.5c44.7,1.6,87.5,17.1,129.5,32.4c16.6,6.1,33.3,12.1,49.9,18.2
		c8.7,3.2,17.7,6.5,24.2,13.2c7.5,7.7,4.5,13.4,7.1,23.9v400h-960C-264.8,377.7-250.5,344.8-246.2,333.3z"/>
	<path class="st14" d="M-247.8-17.6c8.2,7.7,17.1,14.7,26.6,20.9c5.2,3.4,10.8,6.7,17,7.3c2.7,0.3,5.5,0,8.2,0.4
		c6.9,1,12.5,5.8,18.9,8.5c9.1,3.7,19.3,2.9,29.1,1.8c4.1-0.5,8.3-1,12.1-2.4c5.2-2,9.5-5.5,13.8-9c1.9-1.5,3.8-3.1,4.8-5.3
		c0.9-2.1,1-4.4,1.8-6.6c2.6-6.9,11.4-8.5,18.5-10.3c4.1-1,8-2.4,11.8-4.1c1.1-0.5,2.3-1.1,3.1-2.1c1.1-1.3,1.2-3.1,1.4-4.8
		c0.3-4.1,0.6-8.3,1-12.4c0.2-2.5,0.4-5.1-0.7-7.4c-1.1-2.3-3.3-3.8-5.5-5.2c-10.1-6.3-21-11.1-32.5-14.4"/>
	<path class="st13" d="M-214.8-86.5c-1.6,0.8-3.2,1.7-4.5,3c-1.8,1.8-2.7,4.2-4.1,6.3c-3.6,5.3-10,7.9-15.9,10.2
		c-6.6,2.5-13.1,5-19.7,7.6c-1.4,0.5-2.8,1.1-3.7,2.3c-1.5,2.1-0.6,5,0.3,7.3c2.6,6.6,5.2,13.3,7.8,19.9c1.4,3.6,2.9,7.3,5.3,10.3
		c3.3,4.1,8.1,6.6,12.7,9c8.8,4.6,18.1,9.3,28,9.1c6.5-0.1,12.7-2.4,19.1-3.5c11.7-2.1,23.7-0.7,35.6-1.8
		c11.8-1.1,24.4-5.5,30.5-15.8c2.4-4.1,3.7-9,7.2-12.2c1.9-1.8,4.5-3,5.7-5.3c1-2.1,0.7-4.5,0.4-6.8c-1-6.6-2.6-14.2-8.6-17.2
		c-2.4-1.2-5.2-1.5-7.9-1.6c-6.4-0.3-12.9,0.1-19.2,0.9c-3.3,0.5-6.8,1.1-9.8-0.4c-2-1-3.5-2.7-5.1-4.4c-6.9-7.6-15.3-14-24.5-18.7
		c-3.9-2-8.3-4.6-12.6-4.4C-203.4-92.5-210.1-88.9-214.8-86.5z"/>
</g>
<g id="Layer_3" class="st11">
	<path class="st14" d="M-125.4,111c3.1,2.3,6.2,4.6,9.9,5.8c3.1,1,6.4,1.1,9.6,1.7c2.9,0.6,5.7,1.5,8.5,2.5
		c1.2-3.8,1.5-7.8,1.9-11.7c0.2-2,0.3-4.3-1.1-5.8c-1.8-2-5.4-1.6-6.9-3.8"/>
	<path class="st15" d="M-125,103.6c3.7-1.7,7.4-3.4,11.1-5c1.8-0.8,3.7-1.7,5.6-1.6c3.6,0.1,6.3,3.2,8.6,6c0.5,0.7,1.1,1.5,1.1,2.3
		c0,0.6-0.3,1.2-0.7,1.8c-1.3,2.4-2.2,5-2.7,7.6c-0.1,0.6-0.2,1.2-0.6,1.6c-0.7,0.7-1.9,0.6-2.9,0.4c-4-0.8-7.9-1.6-11.9-2.5
		c-2.3-0.5-4.6-0.9-6.6-2.1C-127.7,110.2-129.7,105.8-125,103.6z"/>
	<path class="st14" d="M26-33.1c3.1,2.3,6.2,4.6,9.9,5.8c3.1,1,6.4,1.1,9.6,1.7C48.4-25,51.2-24,54-23c1.2-3.8,1.5-7.8,1.9-11.7
		c0.2-2,0.3-4.3-1.1-5.8c-1.8-2-5.4-1.6-6.9-3.8"/>
	<path class="st15" d="M26.5-40.5c3.7-1.7,7.4-3.4,11.1-5c1.8-0.8,3.7-1.7,5.6-1.6c3.6,0.1,6.3,3.2,8.6,6c0.5,0.7,1.1,1.5,1.1,2.3
		c0,0.6-0.3,1.2-0.7,1.8c-1.3,2.4-2.2,5-2.7,7.6c-0.1,0.6-0.2,1.2-0.6,1.6C48.2-27,47-27.1,46-27.3c-4-0.8-7.9-1.6-11.9-2.5
		c-2.3-0.5-4.6-0.9-6.6-2.1C23.8-34,21.7-38.4,26.5-40.5z"/>
	<path class="st14" d="M168,0.4c3.1,2.3,6.2,4.6,9.9,5.8c3.1,1,6.4,1.1,9.6,1.7c2.9,0.6,5.7,1.5,8.5,2.5c1.2-3.8,1.5-7.8,1.9-11.7
		c0.2-2,0.3-4.3-1.1-5.8c-1.8-2-5.4-1.6-6.9-3.8"/>
	<path class="st15" d="M168.5-7c3.7-1.7,7.4-3.4,11.1-5c1.8-0.8,3.7-1.7,5.6-1.6c3.6,0.1,6.3,3.2,8.6,6c0.5,0.7,1.1,1.5,1.1,2.3
		c0,0.6-0.3,1.2-0.7,1.8c-1.3,2.4-2.2,5-2.7,7.6c-0.1,0.6-0.2,1.2-0.6,1.6c-0.7,0.7-1.9,0.6-2.9,0.4c-4-0.8-7.9-1.6-11.9-2.5
		c-2.3-0.5-4.6-0.9-6.6-2.1C165.8-0.5,163.7-4.9,168.5-7z"/>
	<path class="st14" d="M-40-135.6c3.1,2.3,6.2,4.6,9.9,5.8c3.1,1,6.4,1.1,9.6,1.7c2.9,0.6,5.7,1.5,8.5,2.5c1.2-3.8,1.5-7.8,1.9-11.7
		c0.2-2,0.3-4.3-1.1-5.8c-1.8-2-5.4-1.6-6.9-3.8"/>
	<path class="st15" d="M-39.5-143c3.7-1.7,7.4-3.4,11.1-5c1.8-0.8,3.7-1.7,5.6-1.6c3.6,0.1,6.3,3.2,8.6,6c0.5,0.7,1.1,1.5,1.1,2.3
		c0,0.6-0.3,1.2-0.7,1.8c-1.3,2.4-2.2,5-2.7,7.6c-0.1,0.6-0.2,1.2-0.6,1.6c-0.7,0.7-1.9,0.6-2.9,0.4c-4-0.8-7.9-1.6-11.9-2.5
		c-2.3-0.5-4.6-0.9-6.6-2.1C-42.2-136.5-44.3-140.9-39.5-143z"/>
</g>
<g id="pixelated" class="st11">
	<path class="st16" d="M151.3,78.2l-9.4,8.8v-20V50.1c0-1-0.5-1.9-1.2-2.5c-0.5-0.4-8.4-9.1-9.2-9.1l-11.7,3.2
		c-1.8,0-3.2,1.4-3.2,3.2v16.8h-20H79.9c-1.8,0-3.2,1.4-3.2,3.2l-3.6,11.3c0,0.8,9.1,9,9.6,9.6c0.6,0.7,1.5,1.2,2.5,1.2H102
		l-8.9,9.2c0,0.9,9.2,9.3,9.8,9.8c0.6,0.6,1.4,1,2.3,1H122l-9.1,8.9c0,0.9,9.5,9.5,10,10.1c0.6,0.6,1.4,1,2.3,1H142h16.8
		c1.8,0,3.2-1.4,3.2-3.2v-16.8V90.1c0-1-0.5-1.9-1.2-2.5C160.3,87.2,152.1,78.2,151.3,78.2z"/>
	<path class="st13" d="M112.3,97.3H95.5c-1.8,0-3.2-1.4-3.2-3.2V77.3h20V97.3z"/>
	<rect x="92.3" y="57.3" class="st13" width="20" height="20"/>
	<path class="st13" d="M92.3,77.3H75.5c-1.8,0-3.2-1.4-3.2-3.2V60.5c0-1.8,1.4-3.2,3.2-3.2h16.8V77.3z"/>
	<rect x="112.3" y="57.3" class="st13" width="20" height="20"/>
	<path class="st13" d="M132.3,57.3h-20V40.5c0-1.8,1.4-3.2,3.2-3.2h13.6c1.8,0,3.2,1.4,3.2,3.2V57.3z"/>
	<path class="st13" d="M152.3,97.3h-20v-20h16.8c1.8,0,3.2,1.4,3.2,3.2V97.3z"/>
	<rect x="112.3" y="77.3" class="st13" width="20" height="20"/>
	<path class="st13" d="M132.3,117.3h-16.8c-1.8,0-3.2-1.4-3.2-3.2V97.3h20V117.3z"/>
	<path class="st13" d="M149.1,117.3h-16.8v-20h20V114C152.3,115.8,150.9,117.3,149.1,117.3z"/>
	<polygon class="st16" points="15,17.3 -5,17.3 -14.8,7.6 5.2,-12.4 15,-2.7 	"/>
	<g class="st17">
		<path class="st18" d="M59.4,17.1h-20l-9.5-9.5l19.3-18.8c0.9,0,8.7,8.7,9.3,9.3c0.6,0.6,0.9,1.4,0.9,2.3V17.1z"/>
		<path class="st19" d="M49.9,7.6h-20V-9.2c0-1.8,1.4-3.2,3.2-3.2h13.6c1.8,0,3.2,1.4,3.2,3.2V7.6z"/>
	</g>
	<rect x="-14.8" y="-12.4" class="st13" width="20" height="20"/>
	<g class="st17">
		<polygon class="st20" points="-113.3,17.3 -133.3,17.3 -143,7.6 -123,-12.4 -113.3,-2.7 		"/>
		<rect x="-143" y="-12.4" class="st19" width="20" height="20"/>
	</g>
	<g class="st17">
		<polygon class="st20" points="-93.3,17.3 -113.3,17.3 -123,7.6 -103,-12.4 -93.3,-2.7 		"/>
		<rect x="-123" y="-12.4" class="st19" width="20" height="20"/>
	</g>
	<g class="st17">
		<polygon class="st20" points="-73.3,17.3 -93.3,17.3 -103,7.6 -83,-12.4 -73.3,-2.7 		"/>
		<rect x="-103" y="-12.4" class="st19" width="20" height="20"/>
		<polygon class="st21" points="-83,7.6 -83,-12.4 -73.3,-2.7 -73.3,17.3 		"/>
	</g>
	<g class="st17">
		<polygon class="st20" points="-133.3,37.3 -153.3,37.3 -163,27.6 -143,7.6 -133.3,17.3 		"/>
		<rect x="-163" y="7.6" class="st19" width="20" height="20"/>
	</g>
	<g class="st17">
		<polygon class="st20" points="-113.3,37.3 -133.3,37.3 -143,27.6 -123,7.6 -113.3,17.3 		"/>
		<rect x="-143" y="7.6" class="st19" width="20" height="20"/>
	</g>
	<g class="st17">
		<polygon class="st20" points="-113.3,57.3 -133.3,57.3 -143,47.6 -123,27.6 -113.3,37.3 		"/>
		<rect x="-143" y="27.6" class="st19" width="20" height="20"/>
	</g>
	<g class="st17">
		<polygon class="st20" points="-93.3,37.3 -113.3,37.3 -123,27.6 -103,7.6 -93.3,17.3 		"/>
		<rect x="-123" y="7.6" class="st19" width="20" height="20"/>
		<polygon class="st21" points="-103,27.6 -103,7.6 -93.3,17.3 -93.3,37.3 		"/>
	</g>
	<g class="st17">
		<polygon class="st20" points="-93.3,57.3 -113.3,57.3 -123,47.6 -103,27.6 -93.3,37.3 		"/>
		<rect x="-123" y="27.6" class="st19" width="20" height="20"/>
		<polygon class="st21" points="-103,47.6 -103,27.6 -93.3,37.3 -93.3,57.3 		"/>
	</g>
	<g class="st17">
		<polygon class="st20" points="-113.3,77.3 -133.3,77.3 -143,67.6 -123,47.6 -113.3,57.3 		"/>
		<rect x="-143" y="47.6" class="st19" width="20" height="20"/>
		<polygon class="st21" points="-123,67.6 -123,47.6 -113.3,57.3 -113.3,77.3 		"/>
	</g>
	<g class="st17">
		<polygon class="st20" points="-113.3,97.3 -133.3,97.3 -143,87.6 -123,67.6 -113.3,77.3 		"/>
		<rect x="-143" y="67.6" class="st19" width="20" height="20"/>
		<polygon class="st21" points="-123,87.6 -123,67.6 -113.3,77.3 -113.3,97.3 		"/>
	</g>
</g>
<g id="Layer_2">
	<polygon class="st1" points="-91.9,73.5 -91.9,70.4 -91.9,70.3 -91.9,67.3 -96.1,63.7 -104.2,63.7 -108.1,67.2 -108.1,70.3 
		-108.1,70.4 -108.1,73.6 -104.2,77.1 -96.1,77.1 	"/>
	<polygon class="st0" points="-91.9,67.3 -96.1,63.7 -91.1,59.8 -89.3,61.3 	"/>
	<polygon class="st0" points="-91.9,73.5 -96.1,77.1 -91.1,81 -89.3,79.5 	"/>
	<polygon class="st0" points="-108.1,67.2 -104.1,63.7 -109.1,59.8 -110.9,61.3 	"/>
	<polygon class="st0" points="-108.1,73.6 -104.1,77.1 -109.1,81 -110.9,79.5 	"/>
	<path class="st0" d="M-91.9,69.3c-3-0.6-5.5-2.8-6.6-5.6l2.5,0l4.1,3.6L-91.9,69.3z"/>
	<path class="st0" d="M-91.9,71.5c-3,0.6-5.5,2.8-6.6,5.6l2.5,0l4.1-3.6L-91.9,71.5z"/>
	<path class="st0" d="M-108.1,69.3c3-0.6,5.5-2.8,6.6-5.6l-2.5,0l-4.1,3.6L-108.1,69.3z"/>
	<path class="st0" d="M-108.1,71.5c3,0.6,5.5,2.8,6.6,5.6l-2.5,0l-4.1-3.6L-108.1,71.5z"/>
	<line class="st22" x1="-90.1" y1="80.4" x2="-83.7" y2="77.6"/>
	<line class="st22" x1="-92.3" y1="87" x2="-90.1" y2="80.4"/>
	<line class="st22" x1="-97.2" y1="81.3" x2="-90.1" y2="80.4"/>
	<line class="st22" x1="-96.4" y1="57.3" x2="-90.1" y2="60.4"/>
	<line class="st22" x1="-85.5" y1="65.6" x2="-90.1" y2="60.4"/>
	<line class="st22" x1="-83.4" y1="58.5" x2="-90.1" y2="60.4"/>
	<line class="st22" x1="-110.1" y1="60.4" x2="-103.1" y2="60.7"/>
	<line class="st22" x1="-115.3" y1="55.7" x2="-110.1" y2="60.4"/>
	<line class="st22" x1="-107.7" y1="66.9" x2="-110.1" y2="60.4"/>
	<line class="st22" x1="-110.9" y1="73.4" x2="-110.1" y2="80.4"/>
	<line class="st22" x1="-114.6" y1="85.8" x2="-110.1" y2="80.4"/>
	<line class="st22" x1="-103.2" y1="81.5" x2="-110.1" y2="80.4"/>
	<circle class="st23" cx="-90.1" cy="60.4" r="7"/>
	<circle class="st23" cx="-110.1" cy="60.4" r="7"/>
	<circle class="st23" cx="-110.1" cy="80.4" r="7"/>
	<circle class="st1" cx="-90.1" cy="60.4" r="2.8"/>
	<circle class="st1" cx="-110.1" cy="60.4" r="2.8"/>
	<circle class="st1" cx="-110.1" cy="80.4" r="2.8"/>
	<circle class="st23" cx="-90.1" cy="80.4" r="7"/>
	<circle class="st1" cx="-90.1" cy="80.4" r="2.8"/>
	<circle class="st8" cx="-100" cy="75.9" r="0.8"/>
	<circle class="st24" cx="-100" cy="65.1" r="0.8"/>
	<circle class="st8" cx="-53.8" cy="70.6" r="0.7"/>
	<circle class="st24" cx="-53.8" cy="72.5" r="0.7"/>
	<circle class="st8" cx="57.9" cy="50.7" r="1.4"/>
	<circle class="st24" cx="55.5" cy="46.7" r="1.4"/>
	<polygon class="st0" points="-101.3,73.9 -100.3,71.9 -97.1,70.9 -97.1,70 -100.3,69 -101.3,67 -102.7,67 -102.7,69 -104.5,70 
		-104.5,70.9 -102.7,71.9 -102.7,73.9 	"/>
	<polygon class="st9" points="-97.1,70.9 -97.1,70 -100.3,69 -101.3,67 -102.7,67 -102.7,69 -104.5,70 	"/>
	<polygon class="st8" points="-37.3,71.1 -39.2,68.7 -39.7,68.7 -37.9,71.1 	"/>
	<polygon class="st8" points="-36.1,71.1 -38,68.7 -38.5,68.7 -36.7,71.1 	"/>
	<polygon class="st8" points="-34.8,71.1 -36.7,68.7 -37.2,68.7 -35.4,71.1 	"/>
	<polygon class="st1" points="-37.3,72 -39.2,74.4 -39.7,74.4 -37.9,72 	"/>
	<polygon class="st1" points="-36.1,72 -38,74.4 -38.5,74.4 -36.7,72 	"/>
	<polygon class="st1" points="-34.8,72 -36.7,74.4 -37.2,74.4 -35.4,72 	"/>
</g>
</svg>
